<svg width="19" height="15" viewBox="0 0 19 15" fill="none" xmlns="http://www.w3.org/2000/svg">
<g id="Email">
<path id="Vector" d="M17.8805 2.95312V11.2865C17.8805 11.839 17.661 12.3689 17.2703 12.7596C16.8796 13.1503 16.3497 13.3698 15.7972 13.3698H3.2972C2.74467 13.3698 2.21476 13.1503 1.82406 12.7596C1.43336 12.3689 1.21387 11.839 1.21387 11.2865V2.95312" stroke="white" stroke-opacity="0.7" stroke-width="1.4" stroke-linecap="round" stroke-linejoin="round"/>
<path id="Vector_2" d="M17.8805 2.95052C17.8805 2.39799 17.661 1.86808 17.2703 1.47738C16.8796 1.08668 16.3497 0.867188 15.7972 0.867188H3.2972C2.74467 0.867188 2.21476 1.08668 1.82406 1.47738C1.43336 1.86808 1.21387 2.39799 1.21387 2.95052L8.44303 7.46441C8.77414 7.67135 9.15674 7.78108 9.5472 7.78108C9.93766 7.78108 10.3203 7.67135 10.6514 7.46441L17.8805 2.95052Z" stroke="white" stroke-opacity="0.7" stroke-width="1.4" stroke-linecap="round" stroke-linejoin="round"/>
</g>
</svg>
