<svg width="20" height="20" viewBox="0 0 20 20" fill="none" xmlns="http://www.w3.org/2000/svg">
<g id="Social Media Icon Square/Instagram">
<path id="Instagram" fill-rule="evenodd" clip-rule="evenodd" d="M1.04102 9.54688C1.04102 5.95174 1.04102 4.15417 1.89771 2.85943C2.28026 2.28126 2.7754 1.78612 3.35357 1.40357C4.64831 0.546875 6.44588 0.546875 10.041 0.546875C13.6362 0.546875 15.4337 0.546875 16.7285 1.40357C17.3066 1.78612 17.8018 2.28126 18.1843 2.85943C19.041 4.15417 19.041 5.95174 19.041 9.54688C19.041 13.142 19.041 14.9396 18.1843 16.2343C17.8018 16.8125 17.3066 17.3076 16.7285 17.6902C15.4337 18.5469 13.6362 18.5469 10.041 18.5469C6.44588 18.5469 4.64831 18.5469 3.35357 17.6902C2.7754 17.3076 2.28026 16.8125 1.89771 16.2343C1.04102 14.9396 1.04102 13.142 1.04102 9.54688ZM14.7016 9.55003C14.7016 12.1234 12.6155 14.2094 10.0422 14.2094C7.4689 14.2094 5.38281 12.1234 5.38281 9.55003C5.38281 6.97671 7.4689 4.89062 10.0422 4.89062C12.6155 4.89062 14.7016 6.97671 14.7016 9.55003ZM10.0422 12.633C11.7449 12.633 13.1252 11.2527 13.1252 9.55003C13.1252 7.84734 11.7449 6.46703 10.0422 6.46703C8.33953 6.46703 6.95922 7.84734 6.95922 9.55003C6.95922 11.2527 8.33953 12.633 10.0422 12.633ZM14.8856 5.75215C15.4903 5.75215 15.9805 5.26198 15.9805 4.65732C15.9805 4.05267 15.4903 3.5625 14.8856 3.5625C14.281 3.5625 13.7908 4.05267 13.7908 4.65732C13.7908 5.26198 14.281 5.75215 14.8856 5.75215Z" fill="#0D92F2"/>
</g>
</svg>
