<svg width="20" height="19" viewBox="0 0 20 19" fill="none" xmlns="http://www.w3.org/2000/svg">
<path d="M1.04102 3.46009C1.04102 2.88288 1.24372 2.40669 1.64912 2.03152C2.05452 1.65633 2.58156 1.46875 3.2302 1.46875C3.86728 1.46875 4.38271 1.65344 4.77654 2.02286C5.18194 2.40381 5.38464 2.9002 5.38464 3.51204C5.38464 4.06615 5.18774 4.5279 4.79391 4.89732C4.38851 5.27827 3.85569 5.46875 3.19546 5.46875H3.17808C2.54101 5.46875 2.02558 5.27827 1.63175 4.89732C1.23792 4.51637 1.04102 4.03729 1.04102 3.46009ZM1.26688 18.6116V7.04451H5.12403V18.6116H1.26688ZM7.26109 18.6116H11.1182V12.1527C11.1182 11.7487 11.1646 11.437 11.2572 11.2177C11.4194 10.8252 11.6655 10.4933 11.9956 10.222C12.3258 9.9507 12.7399 9.81507 13.2379 9.81507C14.5352 9.81507 15.1839 10.6866 15.1839 12.4298V18.6116H19.041V11.9796C19.041 10.271 18.6356 8.97524 17.8248 8.09212C17.014 7.20901 15.9426 6.76745 14.6105 6.76745C13.1163 6.76745 11.9522 7.40814 11.1182 8.68953V8.72416H11.1009L11.1182 8.68953V7.04451H7.26109C7.28425 7.41391 7.29584 8.56253 7.29584 10.4904C7.29584 12.4182 7.28425 15.1253 7.26109 18.6116Z" fill="#0D92F2"/>
</svg>
