<svg width="17" height="19" viewBox="0 0 17 19" fill="none" xmlns="http://www.w3.org/2000/svg">
<g id="Mark">
<path id="Vector" d="M15.408 8.65675C15.408 14.0356 9.89885 17.3493 8.75396 17.9805C8.69054 18.0155 8.61929 18.0339 8.54686 18.0339C8.47442 18.0339 8.40317 18.0155 8.33975 17.9805C7.194 17.3493 1.68652 14.0356 1.68652 8.65675C1.68652 4.36877 4.25931 1.36719 8.54728 1.36719C12.8353 1.36719 15.408 4.36877 15.408 8.65675Z" stroke="white" stroke-opacity="0.7" stroke-width="1.4" stroke-linecap="round" stroke-linejoin="round"/>
<path id="Vector_2" d="M5.11719 8.22726C5.11719 9.13705 5.4786 10.0096 6.12192 10.6529C6.76524 11.2962 7.63777 11.6576 8.54757 11.6576C9.45736 11.6576 10.3299 11.2962 10.9732 10.6529C11.6165 10.0096 11.9779 9.13705 11.9779 8.22726C11.9779 7.31746 11.6165 6.44493 10.9732 5.80161C10.3299 5.15829 9.45736 4.79688 8.54757 4.79688C7.63777 4.79688 6.76524 5.15829 6.12192 5.80161C5.4786 6.44493 5.11719 7.31746 5.11719 8.22726V8.22726Z" stroke="white" stroke-opacity="0.7" stroke-width="1.4" stroke-linecap="round" stroke-linejoin="round"/>
</g>
</svg>
