<svg width="155" height="39" viewBox="0 0 155 39" fill="none" xmlns="http://www.w3.org/2000/svg">
<path d="M55.4845 29.9548C51.0945 29.9548 48.0304 27.7451 48.0304 23.7382C48.0304 22.7659 48.2366 22.0293 48.5018 21.3811H52.715C52.5676 21.9999 52.4793 22.6775 52.4793 23.3846C52.4793 25.3586 53.5105 26.5666 55.5139 26.5666C57.6942 26.5666 58.6075 24.8283 58.6075 22.7364C58.6075 20.4678 57.3701 19.0536 55.1604 19.0536H53.9819V15.6949H55.3077C57.0754 15.6949 57.7531 14.9878 57.7531 13.8682C57.7531 12.6602 56.7808 12.0709 55.7496 11.4522C54.4533 10.6862 53.0096 9.80232 53.0096 7.18015L57.4585 7.15068C57.5174 8.15242 58.4602 8.68274 59.6092 9.36038C60.9056 10.1264 62.3787 11.0987 62.3787 13.3968C62.3787 15.6654 60.7288 16.785 58.4896 17.2269V17.3448C60.7288 17.7867 63.1447 19.6134 63.1447 23.09C63.1447 27.0969 60.2279 29.9548 55.4845 29.9548ZM67.5807 29.6602C66.4611 27.0085 65.9013 24.7104 65.9013 21.5579C65.9013 16.6082 68.3762 13.2789 73.4143 13.2789C78.423 13.2789 80.9273 16.6082 80.9273 21.5579C80.9273 24.7104 80.397 27.0085 79.2479 29.6602H74.9758C75.9776 27.0674 76.449 24.3569 76.449 21.6463C76.449 18.2286 75.3294 16.6671 73.4143 16.6671C71.4993 16.6671 70.3797 18.1403 70.3797 21.7052C70.3797 24.4158 70.8805 27.0674 71.8823 29.6602H67.5807ZM102.478 37.0258C100.74 34.1385 97.0866 33.0778 94.4645 33.0778C92.078 33.0778 90.2808 33.7849 88.8371 34.6393L87.364 31.8109C88.2773 31.2511 89.6326 30.7503 90.9879 30.603V30.4851C86.7158 29.1593 83.7401 26.0068 83.7401 21.0276C83.7401 16.5493 86.0676 13.2789 90.104 13.2789C92.5494 13.2789 94.0815 14.5164 94.7591 16.4903H94.9359C95.5546 14.4869 96.9983 13.2789 99.208 13.2789C101.27 13.2789 102.891 14.4869 103.48 16.4903H103.657C104.364 14.5164 105.925 13.2789 108.253 13.2789C112.378 13.2789 114.676 16.6377 114.676 21.3811C114.676 24.1801 114.116 26.3603 112.82 28.7763L109.019 27.3915C109.873 25.447 110.198 23.5614 110.198 21.4695C110.198 18.1108 109.284 16.6671 107.811 16.6671C106.397 16.6671 105.69 17.9635 105.69 20.4089V24.6515H101.447V20.1437C101.447 18.1108 100.858 16.6671 99.208 16.6671C97.6464 16.6671 96.9688 17.9929 96.9688 20.1437V24.6515H92.7556V20.4089C92.7556 18.0519 92.078 16.6671 90.6049 16.6671C89.1317 16.6671 88.2184 18.0224 88.2184 21.1454C88.2184 25.8005 91.3414 28.3638 96.2617 29.5128C100.74 30.544 104.187 32.3118 105.69 35.4348L102.478 37.0258ZM126.948 37.0258C120.849 37.0258 117.461 33.2841 117.461 24.7104C117.461 20.5267 118.315 16.7555 119.995 13.5735H124.385C122.823 16.9323 121.969 20.291 121.969 24.7104C121.969 30.6619 123.383 33.6376 126.977 33.6376C129.659 33.6376 131.043 32.1645 131.043 29.4834C131.043 27.3915 129.835 25.6532 127.449 25.6532H126.447V22.265H128.068C129.776 22.265 130.601 21.5579 130.601 20.3794C130.601 19.2009 129.924 18.376 129.187 17.6983C128.185 16.8144 127.184 15.7538 127.184 13.603L131.633 13.5735C131.78 14.6637 132.487 15.3708 133.459 16.2546C134.402 17.1091 135.139 18.1403 135.139 19.9964C135.139 22.265 133.518 23.4435 131.25 23.9149V24.0033C133.518 24.4453 135.581 26.3898 135.581 29.9842C135.581 34.4331 132.016 37.0258 126.948 37.0258ZM139.885 29.6602C138.765 27.0085 138.206 24.7104 138.206 21.5579C138.206 16.6082 140.681 13.2789 145.719 13.2789C150.727 13.2789 153.232 16.6082 153.232 21.5579C153.232 24.7104 152.701 27.0085 151.552 29.6602H147.28C148.282 27.0674 148.753 24.3569 148.753 21.6463C148.753 18.2286 147.634 16.6671 145.719 16.6671C143.804 16.6671 142.684 18.1403 142.684 21.7052C142.684 24.4158 143.185 27.0674 144.187 29.6602H139.885Z" fill="white"/>
<path d="M0.191406 16.0207C0.191406 7.17272 7.36414 0 16.2121 0V22.1307C16.2121 30.9787 9.03941 38.1514 0.191406 38.1514V16.0207Z" fill="#0D92F2"/>
<path d="M18.5361 8.70553C18.5361 3.8976 22.4337 0 27.2417 0C32.0496 0 35.9472 3.8976 35.9472 8.70553V9.20816C35.9472 14.0161 32.0496 17.9137 27.2417 17.9137C22.4337 17.9137 18.5361 14.0161 18.5361 9.20816V8.70553Z" fill="#4CBFFF"/>
<path d="M18.5361 28.9433C18.5361 24.1354 22.4337 20.2378 27.2417 20.2378C32.0496 20.2378 35.9472 24.1354 35.9472 28.9433V29.446C35.9472 34.2539 32.0496 38.1515 27.2417 38.1515C22.4337 38.1515 18.5361 34.2539 18.5361 29.4459V28.9433Z" fill="#702DFF"/>
</svg>
