<svg width="19" height="19" viewBox="0 0 19 19" fill="none" xmlns="http://www.w3.org/2000/svg">
<g id="Phone">
<path id="Vector" d="M11.7988 17.3861L11.8079 17.3925C12.5949 17.8936 13.5294 18.1112 14.4569 18.0094C15.3843 17.9075 16.2493 17.4923 16.9088 16.8323L17.4818 16.2593C17.6087 16.1324 17.7094 15.9818 17.7782 15.816C17.8469 15.6501 17.8823 15.4724 17.8823 15.2929C17.8823 15.1134 17.8469 14.9356 17.7782 14.7698C17.7094 14.604 17.6087 14.4533 17.4818 14.3264L15.0652 11.9117C14.9383 11.7847 14.7876 11.684 14.6218 11.6153C14.456 11.5466 14.2783 11.5112 14.0988 11.5112C13.9192 11.5112 13.7415 11.5466 13.5757 11.6153C13.4099 11.684 13.2592 11.7847 13.1323 11.9117C12.8761 12.1678 12.5286 12.3117 12.1663 12.3117C11.804 12.3117 11.4566 12.1678 11.2003 11.9117L7.33638 8.04683C7.08023 7.79061 6.93634 7.44314 6.93634 7.08085C6.93634 6.71855 7.08023 6.37108 7.33638 6.11486C7.46334 5.98797 7.56407 5.83731 7.63278 5.67148C7.7015 5.50566 7.73687 5.32792 7.73687 5.14841C7.73687 4.96891 7.7015 4.79117 7.63278 4.62534C7.56407 4.45952 7.46334 4.30886 7.33638 4.18197L4.92072 1.76723C4.6645 1.51108 4.31703 1.36719 3.95473 1.36719C3.59244 1.36719 3.24497 1.51108 2.98875 1.76723L2.41489 2.34017C1.75504 2.99981 1.33998 3.86483 1.23829 4.79229C1.1366 5.71975 1.35437 6.65415 1.85561 7.4411L1.86108 7.45021C4.50826 11.3668 7.8817 14.7396 11.7988 17.3861V17.3861Z" stroke="white" stroke-opacity="0.7" stroke-width="1.4" stroke-linecap="round" stroke-linejoin="round"/>
</g>
</svg>
