<?xml version="1.0" encoding="UTF-8"?>
<svg id="Layer_2" data-name="Layer 2" xmlns="http://www.w3.org/2000/svg" xmlns:xlink="http://www.w3.org/1999/xlink" viewBox="0 0 547.06 149.93">
  <defs>
    <style>
      .cls-1 {
        letter-spacing: 1.66em;
      }

      .cls-2 {
        letter-spacing: 1.67em;
      }

      .cls-3 {
        letter-spacing: 1.67em;
      }

      .cls-4 {
        font-family: TBCContracticaCAPS-Regular, 'TBC Contractica CAPS';
        letter-spacing: 0em;
      }

      .cls-5 {
        font-size: 105.38px;
      }

      .cls-5, .cls-6 {
        fill: #caf0ff;
      }

      .cls-6 {
        font-family: TBCContractica-Book, 'TBC Contractica';
        font-size: 11.21px;
      }

      .cls-7 {
        font-family: TBCContractica-Bold, 'TBC Contractica';
        font-weight: 700;
      }

      .cls-8 {
        letter-spacing: 1.65em;
      }

      .cls-9 {
        fill: url(#linear-gradient);
      }
    </style>
    <linearGradient id="linear-gradient" x1="0" y1="74.97" x2="109.49" y2="74.97" gradientUnits="userSpaceOnUse">
      <stop offset="0" stop-color="#488db4"/>
      <stop offset=".51" stop-color="#85c4e5"/>
      <stop offset="1" stop-color="#ccdde4"/>
    </linearGradient>
  </defs>
  <g id="Layer_1-2" data-name="Layer 1">
    <g>
      <path class="cls-9" d="M43.87,21.93c0,12.11-9.82,21.93-21.93,21.93S0,34.05,0,21.93,9.82,0,21.93,0s21.93,9.82,21.93,21.93ZM23.16,104.22c-12.62,0-22.86,10.23-22.86,22.86s10.23,22.86,22.86,22.86,22.86-10.23,22.86-22.86-10.23-22.86-22.86-22.86ZM109.48,52.11l-109.48.43v43.05l67.19-.43c23.36,0,42.3-18.93,42.3-42.3,0-.25,0-.5,0-.75ZM109.49,42.73C109.49,19.36,90.55.43,67.19.43l-17.32-.43v43.05l59.61.43c0-.25,0-.5,0-.75Z"/>
      <g>
        <text class="cls-5" transform="translate(185.51 105.47)"><tspan class="cls-7" x="0" y="0">ᲞᲘᲚᲪ</tspan><tspan class="cls-4" x="336.15" y="0"> </tspan></text>
        <text class="cls-6" transform="translate(188.99 123.31) scale(1.31 1)"><tspan class="cls-2" x="0" y="0">Ბ</tspan><tspan class="cls-3" x="25.65" y="0">Უ</tspan><tspan class="cls-1" x="51.51" y="0">Ღ</tspan><tspan class="cls-8" x="79.77" y="0">Ა</tspan><tspan class="cls-3" x="104.9" y="0">Ლ</tspan><tspan class="cls-1" x="136.67" y="0">Ტ</tspan><tspan class="cls-3" x="164.49" y="0">Ე</tspan><tspan class="cls-2" x="190.21" y="0">Რ</tspan><tspan class="cls-3" x="218.56" y="0">ᲘᲐ</tspan></text>
      </g>
    </g>
  </g>
</svg>