<svg width="518" height="150" viewBox="0 0 518 150" fill="none" xmlns="http://www.w3.org/2000/svg">
<g clip-path="url(#clip0_2_40)">
<path d="M44.02 22.26C44.02 34.28 34.28 44.02 22.26 44.02C10.24 44.02 0.5 34.28 0.5 22.26C0.5 10.24 10.24 0.5 22.26 0.5C34.28 0.5 44.02 10.24 44.02 22.26ZM23.48 103.9C10.95 103.9 0.8 114.05 0.8 126.58C0.8 139.11 10.95 149.26 23.48 149.26C36.01 149.26 46.16 139.11 46.16 126.58C46.16 114.05 36.01 103.9 23.48 103.9ZM109.12 52.2L0.5 52.62V95.33L67.17 94.91C90.34 94.91 109.14 76.13 109.14 52.94C109.14 52.69 109.14 52.44 109.14 52.19L109.12 52.2ZM109.13 42.89C109.13 19.71 90.34 0.92 67.17 0.92L49.99 0.5V43.21L109.13 43.63C109.13 43.38 109.13 43.13 109.13 42.88V42.89Z" fill="url(#paint0_linear_2_40)"/>
<path d="M203.19 103.54C198.83 101.54 195.46 98.75 193.07 95.16C190.68 91.58 189.49 87.47 189.49 82.83C189.49 81 189.7 79.04 190.12 76.93L205.51 77.56C205.37 79.11 205.3 80.19 205.3 80.83C205.3 84.69 206.46 87.73 208.78 89.95C211.1 92.16 214.19 93.27 218.05 93.27C221.91 93.27 225.02 92.29 227.38 90.32C229.73 88.35 230.91 85.72 230.91 82.42C230.91 79.12 229.8 76.54 227.59 74.67C225.38 72.81 222.34 71.88 218.47 71.88H214.57V59.13H219.42C225.53 59.13 228.59 57.09 228.59 53.02C228.59 51.05 227.94 49.4 226.64 48.07C225.34 46.74 223.32 45.19 220.58 43.43C217.42 41.46 214.89 39.2 212.99 36.63C211.09 34.07 210.18 30.71 210.25 26.57H226.06C226.13 28.26 226.69 29.66 227.75 30.78C228.8 31.9 230.63 33.41 233.23 35.31C236.74 37.84 239.46 40.44 241.4 43.11C243.33 45.78 244.3 48.9 244.3 52.49C244.3 55.44 243.46 58.11 241.77 60.5C240.08 62.89 237.56 64.68 234.18 65.88C237.83 67 240.8 69.15 243.08 72.31C245.36 75.47 246.5 79.3 246.5 83.8C246.5 88.01 245.36 91.86 243.08 95.34C240.8 98.82 237.51 101.56 233.23 103.56C228.94 105.56 223.92 106.56 218.16 106.56C212.4 106.56 207.55 105.56 203.2 103.56L203.19 103.54Z" fill="#02182F"/>
<path d="M259.41 87.21C258.39 81.13 257.88 74.37 257.88 66.92V54.8C257.88 48.69 259.07 43.42 261.46 38.99C263.85 34.56 267.13 31.19 271.31 28.87C275.49 26.55 280.25 25.39 285.59 25.39C290.93 25.39 295.58 26.55 299.76 28.87C303.94 31.19 307.22 34.54 309.61 38.93C312 43.32 313.19 48.54 313.19 54.58V66.91C313.19 74.36 312.68 81.15 311.66 87.3C310.64 93.45 309.18 99.47 307.29 105.37H292.12C295.77 93.08 297.6 80.47 297.6 67.54V55.42C297.6 50.22 296.53 46.22 294.39 43.41C292.25 40.6 289.31 39.2 285.59 39.2C281.87 39.2 278.93 40.61 276.79 43.41C274.65 46.22 273.58 50.26 273.58 55.53V67.54C273.58 80.47 275.41 93.08 279.06 105.37H263.78C261.88 99.33 260.42 93.27 259.41 87.19V87.21Z" fill="#02182F"/>
<path d="M388.76 96.16C384.26 94.51 378.43 93.68 371.27 93.68H335.34V81.98H343.67C337.7 79.52 333.04 75.64 329.71 70.34C326.37 65.04 324.7 58.84 324.7 51.74C324.7 46.19 325.79 41.43 327.97 37.46C330.15 33.49 333.06 30.49 336.72 28.45C340.37 26.41 344.38 25.39 348.73 25.39C352.38 25.39 355.72 26.16 358.74 27.71C361.76 29.26 364.08 31.82 365.7 35.4C367.24 31.89 369.51 29.34 372.5 27.76C375.48 26.18 378.73 25.39 382.25 25.39C385.77 25.39 388.87 26.2 392 27.81C395.12 29.43 397.43 31.96 398.9 35.4C400.59 31.89 402.94 29.34 405.96 27.76C408.98 26.18 412.35 25.39 416.08 25.39C420.44 25.39 424.41 26.43 427.99 28.5C431.57 30.57 434.43 33.79 436.58 38.14C438.72 42.5 439.79 47.98 439.79 54.58C439.79 60.48 438.7 67.12 436.52 74.5L421.03 73.66C423 67.76 423.98 61.33 423.98 54.38C423.98 49.18 423.15 45.34 421.5 42.84C419.85 40.35 417.65 39.1 414.91 39.1C412.31 39.1 410.26 40.07 408.75 42C407.24 43.93 406.48 46.79 406.48 50.59V65.45H390.88V49.12C390.88 45.89 390.09 43.41 388.51 41.69C386.93 39.97 384.84 39.11 382.24 39.11C379.64 39.11 377.5 39.97 376.02 41.69C374.54 43.41 373.81 45.89 373.81 49.12V65.45H358.11V50.59C358.11 46.8 357.35 43.93 355.84 42C354.33 40.07 352.34 39.1 349.89 39.1C347.15 39.1 344.92 40.3 343.2 42.68C341.48 45.07 340.62 48.62 340.62 53.32C340.62 62.87 343.59 69.65 349.52 73.66C355.46 77.66 362.57 79.81 370.86 80.09L378.87 80.41C388.99 80.76 396.99 83.12 402.9 87.47C408.8 91.83 412 97.8 412.49 105.38H396.58C395.88 100.88 393.28 97.81 388.78 96.16H388.76Z" fill="#02182F"/>
<path d="M467.48 102.22C462 99.41 457.61 94.91 454.31 88.73C451.01 82.55 449.36 74.65 449.36 65.02C449.36 51.11 452.21 38.22 457.9 26.35H473.29C470.76 31.97 468.76 37.84 467.28 43.95C465.8 50.06 465.07 57.09 465.07 65.03C465.07 75.64 467.09 82.98 471.13 87.05C475.17 91.13 480.1 93.16 485.94 93.16C490.79 93.16 494.65 92.02 497.53 89.74C500.41 87.46 501.85 84.56 501.85 81.05C501.85 77.54 500.67 74.9 498.32 72.94C495.97 70.97 492.72 69.99 488.57 69.99H481.61V57.13H490.78C494.15 57.13 496.65 56.5 498.26 55.23C499.88 53.97 500.68 52.21 500.68 49.96C500.68 48.42 500.29 47.08 499.52 45.96C498.75 44.84 497.55 43.5 495.94 41.96C493.55 39.57 491.72 37.29 490.46 35.11C489.2 32.93 488.6 30.02 488.67 26.36H504.27C504.41 28.26 504.92 29.87 505.8 31.21C506.68 32.54 508.07 34.23 509.96 36.27C512.07 38.45 513.68 40.48 514.81 42.38C515.93 44.28 516.5 46.63 516.5 49.44C516.5 52.67 515.51 55.64 513.55 58.34C511.58 61.05 508.81 62.96 505.23 64.08C508.95 65.2 511.92 67.44 514.13 70.77C516.34 74.11 517.45 78.09 517.45 82.73C517.45 87.02 516.2 90.97 513.71 94.58C511.22 98.2 507.6 101.08 502.86 103.22C498.12 105.36 492.51 106.43 486.05 106.43C479.16 106.43 472.98 105.03 467.5 102.22H467.48Z" fill="#02182F"/>
<path d="M192.69 122.93C191.97 122.65 191.4 122.25 190.99 121.74C190.57 121.23 190.37 120.63 190.37 119.95C190.37 119.31 190.55 118.74 190.92 118.24C191.29 117.74 191.79 117.35 192.43 117.06C193.07 116.77 193.8 116.59 194.62 116.54V115.41C194.62 115.19 194.56 115.01 194.44 114.87C194.32 114.74 194.12 114.58 193.85 114.4C193.51 114.17 193.25 113.94 193.08 113.71C192.91 113.49 192.84 113.17 192.88 112.76H194.36C194.35 113.03 194.41 113.25 194.54 113.4C194.67 113.56 194.88 113.74 195.16 113.93C195.47 114.14 195.7 114.33 195.86 114.52C196.02 114.71 196.1 114.97 196.1 115.3V116.57C197.22 116.72 198.14 117.09 198.84 117.7C199.54 118.3 199.89 119.05 199.89 119.95C199.89 120.63 199.68 121.23 199.27 121.74C198.85 122.25 198.28 122.65 197.56 122.93C196.83 123.21 196.02 123.35 195.13 123.35C194.24 123.35 193.41 123.21 192.69 122.93ZM192.79 121.71C193.39 122.14 194.17 122.36 195.13 122.36C195.74 122.36 196.29 122.26 196.78 122.07C197.27 121.87 197.65 121.59 197.93 121.23C198.21 120.87 198.35 120.44 198.35 119.96C198.35 119.22 198.04 118.64 197.43 118.2C196.82 117.77 196.05 117.55 195.12 117.55C194.19 117.55 193.39 117.77 192.78 118.2C192.18 118.63 191.87 119.22 191.87 119.96C191.87 120.7 192.17 121.28 192.78 121.72L192.79 121.71Z" fill="#02182F"/>
<path d="M225.49 122.95C224.8 122.68 224.27 122.31 223.9 121.83C223.53 121.35 223.34 120.81 223.34 120.19C223.34 119.8 223.42 119.41 223.6 119.03L225.03 119.07C224.91 119.42 224.85 119.74 224.85 120.05C224.85 120.75 225.13 121.31 225.69 121.72C226.25 122.14 226.98 122.34 227.89 122.34C228.8 122.34 229.5 122.13 230.05 121.7C230.6 121.28 230.87 120.68 230.87 119.93V115.11C230.87 114.62 230.7 114.26 230.37 114C230.03 113.75 229.6 113.62 229.06 113.62C228.52 113.62 228.05 113.75 227.72 114C227.39 114.26 227.22 114.64 227.22 115.14V117.11H225.72V115.21C225.72 114.71 225.55 114.33 225.22 114.09C224.88 113.85 224.42 113.73 223.84 113.73H223.03V112.68H223.98C225.21 112.68 226.05 113.06 226.49 113.83C226.73 113.41 227.1 113.1 227.59 112.91C228.08 112.72 228.62 112.62 229.22 112.62C230.16 112.62 230.92 112.84 231.49 113.29C232.06 113.74 232.35 114.32 232.35 115.03V119.94C232.35 120.63 232.17 121.23 231.8 121.75C231.43 122.27 230.91 122.66 230.23 122.93C229.55 123.21 228.76 123.34 227.86 123.34C226.96 123.34 226.18 123.21 225.49 122.93V122.95Z" fill="#02182F"/>
<path d="M264.56 121.78C263.91 121.47 262.99 121.31 261.8 121.31H257.7V120.4H259.33C258.39 120.08 257.64 119.56 257.09 118.82C256.53 118.08 256.26 117.24 256.26 116.29C256.26 115.49 256.43 114.81 256.77 114.26C257.11 113.71 257.57 113.3 258.14 113.03C258.71 112.76 259.35 112.63 260.04 112.63C260.73 112.63 261.4 112.75 261.95 112.98C262.51 113.21 262.91 113.61 263.17 114.17C263.66 113.14 264.71 112.63 266.32 112.63C267.02 112.63 267.65 112.76 268.22 113.03C268.79 113.3 269.24 113.7 269.57 114.24C269.91 114.78 270.07 115.45 270.07 116.26C270.07 116.75 270.02 117.2 269.91 117.63C269.81 118.06 269.65 118.53 269.44 119.03L267.96 118.97C268.17 118.51 268.32 118.07 268.42 117.65C268.52 117.23 268.57 116.77 268.57 116.29C268.57 115.41 268.35 114.75 267.91 114.3C267.47 113.85 266.9 113.63 266.19 113.63C265.48 113.63 264.96 113.81 264.54 114.16C264.12 114.51 263.92 115.07 263.92 115.83V117.9H262.44V115.83C262.44 115.07 262.23 114.52 261.82 114.16C261.4 113.8 260.86 113.63 260.19 113.63C259.47 113.63 258.89 113.85 258.45 114.3C258.01 114.75 257.79 115.42 257.79 116.33C257.79 117.51 258.18 118.44 258.96 119.13C259.74 119.82 260.88 120.21 262.38 120.31L262.87 120.35C264.15 120.43 265.17 120.7 265.91 121.18C266.65 121.66 267.09 122.34 267.21 123.23H265.71C265.59 122.58 265.2 122.09 264.55 121.78H264.56Z" fill="#02182F"/>
<path d="M298.62 113.94C298.77 114.3 298.96 114.61 299.19 114.89C299.42 115.17 299.73 115.52 300.13 115.93C300.56 116.37 300.9 116.75 301.17 117.07C301.43 117.39 301.66 117.77 301.84 118.2C302.02 118.63 302.12 119.12 302.12 119.66C302.12 120.43 301.92 121.09 301.53 121.64C301.14 122.2 300.6 122.62 299.91 122.91C299.22 123.2 298.44 123.34 297.57 123.34C296.7 123.34 295.96 123.2 295.28 122.91C294.6 122.62 294.06 122.2 293.67 121.65C293.28 121.1 293.08 120.45 293.08 119.69C293.08 119.1 293.18 118.55 293.37 118.04L294.82 118.08C294.66 118.57 294.58 119.07 294.58 119.61C294.58 120.48 294.86 121.15 295.41 121.62C295.96 122.09 296.68 122.33 297.56 122.33C298.44 122.33 299.21 122.11 299.75 121.66C300.29 121.22 300.57 120.55 300.58 119.66C300.58 119.04 300.43 118.5 300.13 118.04C299.83 117.58 299.39 117.05 298.8 116.45C298.37 116 298.03 115.62 297.77 115.3C297.51 114.98 297.3 114.61 297.14 114.18C296.97 113.75 296.9 113.27 296.91 112.75H298.37C298.37 113.18 298.45 113.57 298.6 113.93L298.62 113.94Z" fill="#02182F"/>
<path d="M336.54 121.78C335.71 121.47 334.52 121.31 332.97 121.31H327.05V120.39H328.74C327.64 120.07 326.76 119.54 326.1 118.79C325.44 118.04 325.11 117.14 325.11 116.08C325.11 115.32 325.29 114.68 325.65 114.16C326.01 113.64 326.49 113.25 327.08 113C327.67 112.75 328.31 112.62 328.99 112.62C329.6 112.62 330.17 112.73 330.69 112.96C331.22 113.19 331.61 113.59 331.88 114.17C332.12 113.61 332.52 113.21 333.06 112.97C333.6 112.73 334.19 112.61 334.81 112.61C335.43 112.61 336 112.73 336.56 112.97C337.12 113.21 337.52 113.61 337.76 114.16C338.02 113.6 338.4 113.2 338.92 112.96C339.44 112.72 340.03 112.6 340.69 112.6C341.35 112.6 342 112.73 342.58 112.99C343.15 113.25 343.61 113.66 343.95 114.21C344.29 114.76 344.46 115.45 344.46 116.27C344.46 117.09 344.26 118.02 343.86 119L342.38 118.94C342.77 118.07 342.97 117.18 342.97 116.27C342.97 115.36 342.75 114.71 342.32 114.27C341.89 113.84 341.33 113.62 340.66 113.62C340.04 113.62 339.52 113.79 339.1 114.15C338.68 114.5 338.48 115.04 338.48 115.77V117.91H337V115.61C337 114.93 336.79 114.43 336.38 114.11C335.96 113.79 335.45 113.63 334.82 113.63C334.19 113.63 333.66 113.79 333.25 114.11C332.84 114.43 332.64 114.93 332.64 115.62V117.92H331.16V115.78C331.16 115.05 330.95 114.51 330.54 114.16C330.12 113.81 329.62 113.63 329.02 113.63C328.36 113.63 327.8 113.84 327.34 114.25C326.88 114.66 326.65 115.28 326.65 116.11C326.65 117.4 327.15 118.4 328.16 119.11C329.17 119.82 330.52 120.2 332.22 120.25L333.98 120.29C335.65 120.34 336.96 120.61 337.91 121.12C338.86 121.63 339.38 122.33 339.49 123.21H337.97C337.85 122.56 337.37 122.07 336.54 121.76V121.78Z" fill="#02182F"/>
<path d="M368.56 115.52C369.05 114.78 369.73 114.19 370.59 113.77C371.45 113.35 372.45 113.09 373.56 113.01V112.35H375.06V113.01C376.16 113.09 377.14 113.33 378 113.76C378.86 114.18 379.54 114.77 380.02 115.51C380.5 116.25 380.75 117.13 380.75 118.13C380.75 119.2 380.47 120.13 379.91 120.92C379.35 121.71 378.58 122.31 377.61 122.73C376.64 123.15 375.54 123.35 374.32 123.35C373.1 123.35 371.98 123.14 370.99 122.73C370 122.31 369.23 121.71 368.66 120.92C368.09 120.13 367.82 119.2 367.82 118.13C367.82 117.13 368.06 116.26 368.55 115.52H368.56ZM373.69 113.93C372.38 114.03 371.33 114.45 370.54 115.17C369.75 115.89 369.35 116.88 369.35 118.13C369.35 119.01 369.57 119.76 370 120.4C370.43 121.03 371.03 121.52 371.78 121.86C372.53 122.2 373.38 122.36 374.33 122.36C375.28 122.36 376.12 122.19 376.87 121.86C377.62 121.53 378.21 121.04 378.64 120.4C379.07 119.76 379.28 119.01 379.28 118.14C379.28 116.89 378.88 115.9 378.09 115.18C377.3 114.46 376.25 114.04 374.96 113.94C375.03 114.25 375.07 114.68 375.07 115.24V119.08H373.57V115.26C373.57 114.74 373.61 114.3 373.7 113.94L373.69 113.93Z" fill="#02182F"/>
<path d="M406.18 122.95C405.5 122.68 404.97 122.31 404.6 121.83C404.23 121.35 404.04 120.81 404.04 120.19C404.04 119.81 404.12 119.42 404.28 119.03L405.71 119.07C405.59 119.48 405.53 119.81 405.53 120.05C405.53 120.75 405.81 121.31 406.37 121.72C406.93 122.14 407.66 122.34 408.57 122.34C409.48 122.34 410.2 122.13 410.74 121.71C411.28 121.29 411.56 120.7 411.56 119.95V115.89C411.55 115.15 411.27 114.59 410.74 114.21C410.2 113.83 409.52 113.64 408.71 113.64C407.84 113.64 407.16 113.82 406.67 114.18C406.17 114.54 405.93 115.05 405.93 115.7C405.93 115.93 405.95 116.16 406 116.37L404.52 116.4C404.45 116.13 404.41 115.85 404.41 115.57C404.41 114.99 404.6 114.48 404.98 114.04C405.36 113.6 405.87 113.25 406.53 113C407.18 112.75 407.91 112.63 408.72 112.63C409.53 112.63 410.26 112.76 410.92 113.01C411.58 113.27 412.1 113.64 412.49 114.12C412.88 114.6 413.07 115.17 413.07 115.81V119.97C413.07 120.65 412.89 121.25 412.52 121.76C412.15 122.27 411.63 122.66 410.95 122.94C410.27 123.22 409.48 123.35 408.58 123.35C407.68 123.35 406.9 123.22 406.22 122.94L406.18 122.95Z" fill="#02182F"/>
<path d="M448.88 116.91C449.45 117.16 449.9 117.55 450.24 118.06C450.57 118.58 450.74 119.22 450.74 119.97C450.74 120.57 450.66 121.12 450.49 121.62C450.32 122.12 450.08 122.66 449.77 123.22H448.29C448.62 122.65 448.86 122.11 449.01 121.6C449.16 121.09 449.24 120.55 449.24 119.99C449.24 119.19 449.02 118.58 448.58 118.16C448.14 117.74 447.57 117.54 446.86 117.54C446.15 117.54 445.61 117.71 445.2 118.04C444.79 118.37 444.59 118.9 444.59 119.62V121.58H443.11V119.62C443.11 118.89 442.9 118.36 442.49 118.03C442.08 117.7 441.53 117.53 440.86 117.53C440.13 117.53 439.54 117.74 439.09 118.15C438.64 118.56 438.42 119.17 438.42 119.98C438.42 120.53 438.5 121.06 438.65 121.55C438.8 122.05 439.05 122.6 439.39 123.21H437.91C437.57 122.58 437.32 121.97 437.17 121.39C437.02 120.81 436.94 120.08 436.94 119.21C436.94 117.98 437.22 117.01 437.78 116.3C438.34 115.6 439 115.09 439.77 114.79C440.53 114.49 441.49 114.21 442.65 113.96C443.52 113.77 444.16 113.6 444.57 113.44C444.99 113.28 445.26 113.05 445.39 112.74H446.89C446.82 113.17 446.6 113.52 446.24 113.79C445.88 114.06 445.45 114.27 444.96 114.42C444.47 114.57 443.8 114.74 442.96 114.92C442.07 115.12 441.34 115.3 440.76 115.48C440.19 115.66 439.67 115.91 439.2 116.24C438.74 116.57 438.42 117 438.25 117.53C438.54 117.16 438.92 116.89 439.39 116.74C439.86 116.59 440.35 116.51 440.87 116.51C441.55 116.51 442.16 116.63 442.68 116.86C443.2 117.09 443.59 117.46 443.83 117.97C444.1 117.45 444.51 117.07 445.07 116.85C445.63 116.63 446.26 116.51 446.98 116.51C447.7 116.51 448.31 116.64 448.88 116.89V116.91Z" fill="#02182F"/>
<path d="M474.62 120.73C474.43 119.92 474.34 119 474.34 117.97V116.4C474.34 115.59 474.54 114.89 474.94 114.32C475.34 113.75 475.87 113.32 476.54 113.03C477.21 112.74 477.96 112.6 478.79 112.6C479.62 112.6 480.35 112.74 481.02 113.03C481.69 113.32 482.23 113.75 482.62 114.32C483.01 114.89 483.22 115.58 483.22 116.39V117.96C483.22 118.98 483.13 119.9 482.94 120.72C482.76 121.54 482.48 122.37 482.1 123.21H480.63C481.01 122.35 481.29 121.5 481.46 120.67C481.64 119.84 481.72 118.93 481.72 117.95V116.49C481.72 115.55 481.45 114.83 480.9 114.35C480.35 113.86 479.64 113.62 478.78 113.62C477.92 113.62 477.17 113.86 476.63 114.35C476.09 114.84 475.82 115.55 475.82 116.49V117.95C475.82 118.9 475.91 119.8 476.09 120.66C476.27 121.51 476.55 122.37 476.93 123.21H475.46C475.08 122.36 474.8 121.53 474.61 120.72L474.62 120.73Z" fill="#02182F"/>
<path d="M512.38 113.94C512.53 114.3 512.72 114.61 512.95 114.89C513.18 115.17 513.49 115.52 513.89 115.93C514.32 116.37 514.66 116.75 514.93 117.07C515.19 117.39 515.42 117.77 515.6 118.2C515.78 118.63 515.88 119.12 515.88 119.66C515.88 120.43 515.68 121.09 515.29 121.64C514.9 122.2 514.36 122.62 513.67 122.91C512.98 123.2 512.2 123.34 511.33 123.34C510.46 123.34 509.72 123.2 509.04 122.91C508.36 122.62 507.82 122.2 507.43 121.65C507.04 121.1 506.84 120.45 506.84 119.69C506.84 119.1 506.94 118.55 507.13 118.04L508.58 118.08C508.42 118.57 508.34 119.07 508.34 119.61C508.34 120.48 508.62 121.15 509.17 121.62C509.72 122.09 510.44 122.33 511.32 122.33C512.2 122.33 512.97 122.11 513.51 121.66C514.05 121.22 514.33 120.55 514.34 119.66C514.34 119.04 514.19 118.5 513.89 118.04C513.59 117.58 513.15 117.05 512.56 116.45C512.13 116 511.79 115.62 511.53 115.3C511.27 114.98 511.06 114.61 510.9 114.18C510.73 113.75 510.66 113.27 510.67 112.75H512.13C512.13 113.18 512.21 113.57 512.36 113.93L512.38 113.94Z" fill="#02182F"/>
</g>
<defs>
<linearGradient id="paint0_linear_2_40" x1="0.5" y1="74.88" x2="109.13" y2="74.88" gradientUnits="userSpaceOnUse">
<stop stop-color="#02182F"/>
<stop offset="1" stop-color="#85C4E5"/>
</linearGradient>
<clipPath id="clip0_2_40">
<rect width="516.93" height="148.76" fill="white" transform="translate(0.5 0.5)"/>
</clipPath>
</defs>
</svg>
