<svg width="396" height="150" viewBox="0 0 396 150" fill="none" xmlns="http://www.w3.org/2000/svg">
<g clip-path="url(#clip0_2_60)">
<path d="M201.65 81.07V107.62H188.16V30.59H218.61C234.1 30.59 244.11 40.71 244.11 55.77C244.11 70.83 233.99 81.06 218.61 81.06H201.64L201.65 81.07ZM201.65 42.61V69.06H215.77C225.04 69.06 230 64.11 230 55.68C230 47.25 224.94 42.61 215.99 42.61H201.66H201.65Z" fill="#02182F"/>
<path d="M268.99 107.62H255.5V30.59H268.99V107.62Z" fill="#02182F"/>
<path d="M299.55 95.19H331.8V107.62H286.07V30.59H299.56V95.19H299.55Z" fill="#02182F"/>
<path d="M337.48 107.62V95.08L375.52 43.02H338.32V30.59H392.27V42.6L353.91 95.18H392.9V107.61H337.47L337.48 107.62Z" fill="#02182F"/>
<path d="M201.65 81.07V107.62H188.16V30.59H218.61C234.1 30.59 244.11 40.71 244.11 55.77C244.11 70.83 233.99 81.06 218.61 81.06H201.64L201.65 81.07ZM201.65 42.61V69.06H215.77C225.04 69.06 230 64.11 230 55.68C230 47.25 224.94 42.61 215.99 42.61H201.66H201.65Z" fill="#081F37"/>
<path d="M268.99 107.62H255.5V30.59H268.99V107.62Z" fill="#081F37"/>
<path d="M299.55 95.19H331.8V107.62H286.07V30.59H299.56V95.19H299.55Z" fill="#081F37"/>
<path d="M337.48 107.62V95.08L375.52 43.02H338.32V30.59H392.27V42.6L353.91 95.18H392.9V107.61H337.47L337.48 107.62Z" fill="#081F37"/>
<path d="M188.08 128.89L191.93 118.41H193.23L197.12 128.89H196.02L195 126.11H190.17L189.15 128.89H188.08ZM190.5 125.19H194.67L192.71 119.89C192.67 119.74 192.59 119.57 192.58 119.47C192.57 119.56 192.51 119.75 192.45 119.89L190.5 125.19Z" fill="black"/>
<path d="M210.08 123.65C210.08 120.43 212.1 118.23 215.06 118.23C217.31 118.23 219.08 119.59 219.51 121.67H218.38C217.94 120.16 216.65 119.24 215.01 119.24C212.71 119.24 211.18 121 211.18 123.65C211.18 126.3 212.72 128.04 215.01 128.04C216.66 128.04 217.98 127.15 218.43 125.74H219.56C219.08 127.72 217.25 129.05 214.99 129.05C212.06 129.05 210.07 126.87 210.07 123.65H210.08Z" fill="black"/>
<path d="M233.29 123.65C233.29 120.43 235.31 118.23 238.27 118.23C240.52 118.23 242.29 119.59 242.72 121.67H241.59C241.15 120.16 239.86 119.24 238.22 119.24C235.92 119.24 234.39 121 234.39 123.65C234.39 126.3 235.93 128.04 238.22 128.04C239.87 128.04 241.19 127.15 241.64 125.74H242.77C242.29 127.72 240.46 129.05 238.2 129.05C235.27 129.05 233.28 126.87 233.28 123.65H233.29Z" fill="black"/>
<path d="M261.49 129.07C258.55 129.07 256.5 126.83 256.5 123.66C256.5 120.49 258.56 118.23 261.49 118.23C264.42 118.23 266.48 120.47 266.48 123.66C266.48 126.85 264.42 129.07 261.49 129.07ZM261.49 119.25C259.18 119.25 257.6 121.04 257.6 123.66C257.6 126.28 259.18 128.06 261.49 128.06C263.8 128.06 265.4 126.26 265.4 123.66C265.4 121.06 263.81 119.25 261.49 119.25Z" fill="black"/>
<path d="M280.87 118.41H281.92V125.2C281.92 127.04 282.93 128.04 284.76 128.04C286.59 128.04 287.55 127.02 287.55 125.2V118.41H288.6V125.24C288.6 127.61 287.14 129.06 284.75 129.06C282.36 129.06 280.86 127.63 280.86 125.24V118.41H280.87Z" fill="black"/>
<path d="M303.63 128.89V118.41H304.7L310.46 127.13V118.41H311.5V128.89H310.46L304.68 120.17V128.89H303.63Z" fill="black"/>
<path d="M325.51 118.41H333.02V119.38H329.79V128.89H328.74V119.38H325.52V118.41H325.51Z" fill="black"/>
<path d="M348.07 128.89H347.02V118.41H348.07V128.89Z" fill="black"/>
<path d="M363.16 128.89V118.41H364.23L370 127.13V118.41H371.04V128.89H370L364.22 120.17V128.89H363.17H363.16Z" fill="black"/>
<path d="M386.59 123.7C386.59 126.42 388.2 128.08 390.56 128.08C392.32 128.08 394.03 127.23 394.03 124.71V124.17H390.24V123.23H395.03V128.91H394.2L394.1 127.24C393.54 128.28 392.23 129.07 390.53 129.07C387.56 129.07 385.51 126.93 385.51 123.7C385.51 120.47 387.56 118.24 390.56 118.24C392.77 118.24 394.48 119.5 394.89 121.4H393.75C393.31 119.97 392.08 119.23 390.54 119.23C388.13 119.23 386.6 121.02 386.6 123.69L386.59 123.7Z" fill="black"/>
<path d="M188.08 128.89L191.93 118.41H193.23L197.12 128.89H196.02L195 126.11H190.17L189.15 128.89H188.08ZM190.5 125.19H194.67L192.71 119.89C192.67 119.74 192.59 119.57 192.58 119.47C192.57 119.56 192.51 119.75 192.45 119.89L190.5 125.19Z" fill="#081F37"/>
<path d="M210.08 123.65C210.08 120.43 212.1 118.23 215.06 118.23C217.31 118.23 219.08 119.59 219.51 121.67H218.38C217.94 120.16 216.65 119.24 215.01 119.24C212.71 119.24 211.18 121 211.18 123.65C211.18 126.3 212.72 128.04 215.01 128.04C216.66 128.04 217.98 127.15 218.43 125.74H219.56C219.08 127.72 217.25 129.05 214.99 129.05C212.06 129.05 210.07 126.87 210.07 123.65H210.08Z" fill="#081F37"/>
<path d="M233.29 123.65C233.29 120.43 235.31 118.23 238.27 118.23C240.52 118.23 242.29 119.59 242.72 121.67H241.59C241.15 120.16 239.86 119.24 238.22 119.24C235.92 119.24 234.39 121 234.39 123.65C234.39 126.3 235.93 128.04 238.22 128.04C239.87 128.04 241.19 127.15 241.64 125.74H242.77C242.29 127.72 240.46 129.05 238.2 129.05C235.27 129.05 233.28 126.87 233.28 123.65H233.29Z" fill="#081F37"/>
<path d="M261.49 129.07C258.55 129.07 256.5 126.83 256.5 123.66C256.5 120.49 258.56 118.23 261.49 118.23C264.42 118.23 266.48 120.47 266.48 123.66C266.48 126.85 264.42 129.07 261.49 129.07ZM261.49 119.25C259.18 119.25 257.6 121.04 257.6 123.66C257.6 126.28 259.18 128.06 261.49 128.06C263.8 128.06 265.4 126.26 265.4 123.66C265.4 121.06 263.81 119.25 261.49 119.25Z" fill="#081F37"/>
<path d="M280.87 118.41H281.92V125.2C281.92 127.04 282.93 128.04 284.76 128.04C286.59 128.04 287.55 127.02 287.55 125.2V118.41H288.6V125.24C288.6 127.61 287.14 129.06 284.75 129.06C282.36 129.06 280.86 127.63 280.86 125.24V118.41H280.87Z" fill="#081F37"/>
<path d="M303.63 128.89V118.41H304.7L310.46 127.13V118.41H311.5V128.89H310.46L304.68 120.17V128.89H303.63Z" fill="#081F37"/>
<path d="M325.51 118.41H333.02V119.38H329.79V128.89H328.74V119.38H325.52V118.41H325.51Z" fill="#081F37"/>
<path d="M348.07 128.89H347.02V118.41H348.07V128.89Z" fill="#081F37"/>
<path d="M363.16 128.89V118.41H364.23L370 127.13V118.41H371.04V128.89H370L364.22 120.17V128.89H363.17H363.16Z" fill="#081F37"/>
<path d="M386.59 123.7C386.59 126.42 388.2 128.08 390.56 128.08C392.32 128.08 394.03 127.23 394.03 124.71V124.17H390.24V123.23H395.03V128.91H394.2L394.1 127.24C393.54 128.28 392.23 129.07 390.53 129.07C387.56 129.07 385.51 126.93 385.51 123.7C385.51 120.47 387.56 118.24 390.56 118.24C392.77 118.24 394.48 119.5 394.89 121.4H393.75C393.31 119.97 392.08 119.23 390.54 119.23C388.13 119.23 386.6 121.02 386.6 123.69L386.59 123.7Z" fill="#081F37"/>
<path d="M44.02 22.26C44.02 34.28 34.28 44.02 22.26 44.02C10.24 44.02 0.5 34.28 0.5 22.26C0.5 10.24 10.24 0.5 22.26 0.5C34.28 0.5 44.02 10.24 44.02 22.26ZM23.48 103.9C10.95 103.9 0.8 114.05 0.8 126.58C0.8 139.11 10.95 149.26 23.48 149.26C36.01 149.26 46.16 139.11 46.16 126.58C46.16 114.05 36.01 103.9 23.48 103.9ZM109.12 52.2L0.5 52.62V95.33L67.17 94.91C90.34 94.91 109.14 76.13 109.14 52.94C109.14 52.69 109.14 52.44 109.14 52.19L109.12 52.2ZM109.13 42.89C109.13 19.71 90.34 0.92 67.17 0.92L49.99 0.5V43.21L109.13 43.63C109.13 43.38 109.13 43.13 109.13 42.88V42.89Z" fill="url(#paint0_linear_2_60)"/>
</g>
<defs>
<linearGradient id="paint0_linear_2_60" x1="0.5" y1="74.88" x2="109.13" y2="74.88" gradientUnits="userSpaceOnUse">
<stop stop-color="#02182F"/>
<stop offset="1" stop-color="#85C4E5"/>
</linearGradient>
<clipPath id="clip0_2_60">
<rect width="394.52" height="148.76" fill="white" transform="translate(0.5 0.5)"/>
</clipPath>
</defs>
</svg>
