<?xml version="1.0" encoding="UTF-8"?>
<svg id="Layer_2" data-name="Layer 2" xmlns="http://www.w3.org/2000/svg" xmlns:xlink="http://www.w3.org/1999/xlink" viewBox="0 0 425.53 149.93">
  <defs>
    <style>
      .cls-1 {
        fill: #34ff50;
      }

      .cls-1, .cls-2 {
        font-family: Satoshi-Regular, Satoshi;
        letter-spacing: 0em;
      }

      .cls-3 {
        font-family: Satoshi-Light, Satoshi;
        font-size: 14.64px;
        font-weight: 300;
      }

      .cls-3, .cls-4, .cls-5 {
        fill: #caf0ff;
      }

      .cls-4, .cls-6 {
        font-size: 105.38px;
      }

      .cls-7 {
        letter-spacing: .83em;
      }

      .cls-8 {
        letter-spacing: .86em;
      }

      .cls-9, .cls-5 {
        font-family: Satoshi-Bold, Satoshi;
        font-weight: 700;
      }

      .cls-10 {
        fill: url(#linear-gradient);
      }
    </style>
    <linearGradient id="linear-gradient" x1="0" y1="74.97" x2="109.49" y2="74.97" gradientUnits="userSpaceOnUse">
      <stop offset="0" stop-color="#488db4"/>
      <stop offset=".51" stop-color="#85c4e5"/>
      <stop offset="1" stop-color="#ccdde4"/>
    </linearGradient>
  </defs>
  <g id="Layer_1-2" data-name="Layer 1">
    <g>
      <g>
        <g>
          <text class="cls-6" transform="translate(179.79 107.12)"><tspan class="cls-5" x="0" y="0">PILZ</tspan><tspan class="cls-1" x="216.55" y="0"> </tspan></text>
          <text class="cls-4" transform="translate(179.79 107.12)"><tspan class="cls-9" x="0" y="0">PILZ</tspan><tspan class="cls-2" x="216.55" y="0"> </tspan></text>
        </g>
        <g>
          <text class="cls-3" transform="translate(188.03 128.39)"><tspan class="cls-7" x="0" y="0">A</tspan><tspan class="cls-8" x="21.4" y="0">CCOUNTING</tspan></text>
          <text class="cls-3" transform="translate(188.03 128.39)"><tspan class="cls-7" x="0" y="0">A</tspan><tspan class="cls-8" x="21.4" y="0">CCOUNTING</tspan></text>
        </g>
      </g>
      <path class="cls-10" d="M43.87,21.93c0,12.11-9.82,21.93-21.93,21.93S0,34.05,0,21.93,9.82,0,21.93,0s21.93,9.82,21.93,21.93ZM23.16,104.22c-12.62,0-22.86,10.23-22.86,22.86s10.23,22.86,22.86,22.86,22.86-10.23,22.86-22.86-10.23-22.86-22.86-22.86ZM109.48,52.11l-109.48.43v43.05l67.19-.43c23.36,0,42.3-18.93,42.3-42.3,0-.25,0-.5,0-.75ZM109.49,42.73C109.49,19.36,90.55.43,67.19.43l-17.32-.43v43.05l59.61.43c0-.25,0-.5,0-.75Z"/>
    </g>
  </g>
</svg>