<svg width="518" height="151" viewBox="0 0 518 151" fill="none" xmlns="http://www.w3.org/2000/svg">
<g clip-path="url(#clip0_2_98)">
<path d="M44.37 22.43C44.37 34.54 34.55 44.36 22.44 44.36C10.33 44.36 0.5 34.55 0.5 22.43C0.5 10.31 10.32 0.5 22.43 0.5C34.54 0.5 44.36 10.32 44.36 22.43H44.37ZM23.66 104.72C11.04 104.72 0.8 114.95 0.8 127.58C0.8 140.21 11.03 150.44 23.66 150.44C36.29 150.44 46.52 140.21 46.52 127.58C46.52 114.95 36.29 104.72 23.66 104.72ZM109.98 52.61L0.5 53.04V96.09L67.69 95.66C91.05 95.66 109.99 76.73 109.99 53.36C109.99 53.11 109.99 52.86 109.99 52.61H109.98ZM109.99 43.23C109.99 19.86 91.05 0.93 67.69 0.93L50.37 0.5V43.55L109.98 43.98C109.98 43.73 109.98 43.48 109.98 43.23H109.99Z" fill="url(#paint0_linear_2_98)"/>
<path d="M203.19 104.13C198.83 102.13 195.46 99.34 193.07 95.75C190.68 92.17 189.49 88.06 189.49 83.42C189.49 81.59 189.7 79.63 190.12 77.52L205.51 78.15C205.37 79.7 205.3 80.78 205.3 81.42C205.3 85.28 206.46 88.32 208.78 90.54C211.1 92.75 214.19 93.86 218.05 93.86C221.91 93.86 225.02 92.88 227.38 90.91C229.73 88.94 230.91 86.31 230.91 83.01C230.91 79.71 229.8 77.13 227.59 75.26C225.38 73.4 222.34 72.47 218.47 72.47H214.57V59.72H219.42C225.53 59.72 228.59 57.68 228.59 53.61C228.59 51.64 227.94 49.99 226.64 48.66C225.34 47.33 223.32 45.78 220.58 44.02C217.42 42.05 214.89 39.79 212.99 37.22C211.09 34.66 210.18 31.3 210.25 27.16H226.06C226.13 28.85 226.69 30.25 227.75 31.37C228.8 32.49 230.63 34 233.23 35.9C236.74 38.43 239.46 41.03 241.4 43.7C243.33 46.37 244.3 49.49 244.3 53.08C244.3 56.03 243.46 58.7 241.77 61.09C240.08 63.48 237.56 65.27 234.18 66.47C237.83 67.59 240.8 69.74 243.08 72.9C245.36 76.06 246.5 79.89 246.5 84.39C246.5 88.6 245.36 92.45 243.08 95.93C240.8 99.41 237.51 102.15 233.23 104.15C228.94 106.15 223.92 107.15 218.16 107.15C212.4 107.15 207.55 106.15 203.2 104.15L203.19 104.13Z" fill="#CAF0FF"/>
<path d="M259.41 87.8C258.39 81.72 257.88 74.96 257.88 67.51V55.39C257.88 49.28 259.07 44.01 261.46 39.58C263.85 35.15 267.13 31.78 271.31 29.46C275.49 27.14 280.25 25.98 285.59 25.98C290.93 25.98 295.58 27.14 299.76 29.46C303.94 31.78 307.22 35.13 309.61 39.52C312 43.91 313.19 49.13 313.19 55.17V67.5C313.19 74.95 312.68 81.74 311.66 87.89C310.64 94.04 309.18 100.06 307.29 105.96H292.12C295.77 93.67 297.6 81.06 297.6 68.13V56.01C297.6 50.81 296.53 46.81 294.39 44C292.25 41.19 289.31 39.79 285.59 39.79C281.87 39.79 278.93 41.2 276.79 44C274.65 46.81 273.58 50.85 273.58 56.12V68.13C273.58 81.06 275.41 93.67 279.06 105.96H263.78C261.88 99.92 260.42 93.86 259.41 87.78V87.8Z" fill="#CAF0FF"/>
<path d="M388.76 96.75C384.26 95.1 378.43 94.27 371.27 94.27H335.34V82.57H343.67C337.7 80.11 333.04 76.23 329.71 70.93C326.37 65.63 324.7 59.43 324.7 52.33C324.7 46.78 325.79 42.02 327.97 38.05C330.15 34.08 333.06 31.08 336.72 29.04C340.37 27 344.38 25.98 348.73 25.98C352.38 25.98 355.72 26.75 358.74 28.3C361.76 29.85 364.08 32.41 365.7 35.99C367.24 32.48 369.51 29.93 372.5 28.35C375.48 26.77 378.73 25.98 382.25 25.98C385.77 25.98 388.87 26.79 392 28.4C395.12 30.02 397.43 32.55 398.9 35.99C400.59 32.48 402.94 29.93 405.96 28.35C408.98 26.77 412.35 25.98 416.08 25.98C420.44 25.98 424.41 27.02 427.99 29.09C431.57 31.16 434.43 34.38 436.58 38.73C438.72 43.09 439.79 48.57 439.79 55.17C439.79 61.07 438.7 67.71 436.52 75.09L421.03 74.25C423 68.35 423.98 61.92 423.98 54.97C423.98 49.77 423.15 45.93 421.5 43.43C419.85 40.94 417.65 39.69 414.91 39.69C412.31 39.69 410.26 40.66 408.75 42.59C407.24 44.52 406.48 47.38 406.48 51.18V66.04H390.88V49.71C390.88 46.48 390.09 44 388.51 42.28C386.93 40.56 384.84 39.7 382.24 39.7C379.64 39.7 377.5 40.56 376.02 42.28C374.54 44 373.81 46.48 373.81 49.71V66.04H358.11V51.18C358.11 47.39 357.35 44.52 355.84 42.59C354.33 40.66 352.34 39.69 349.89 39.69C347.15 39.69 344.92 40.89 343.2 43.27C341.48 45.66 340.62 49.21 340.62 53.91C340.62 63.46 343.59 70.24 349.52 74.25C355.46 78.25 362.57 80.4 370.86 80.68L378.87 81C388.99 81.35 396.99 83.71 402.9 88.06C408.8 92.42 412 98.39 412.49 105.97H396.58C395.88 101.47 393.28 98.4 388.78 96.75H388.76Z" fill="#CAF0FF"/>
<path d="M467.48 102.81C462 100 457.61 95.5 454.31 89.32C451.01 83.14 449.36 75.24 449.36 65.61C449.36 51.7 452.21 38.81 457.9 26.94H473.29C470.76 32.56 468.76 38.43 467.28 44.54C465.8 50.65 465.07 57.68 465.07 65.62C465.07 76.23 467.09 83.57 471.13 87.64C475.17 91.72 480.1 93.75 485.94 93.75C490.79 93.75 494.65 92.61 497.53 90.33C500.41 88.05 501.85 85.15 501.85 81.64C501.85 78.13 500.67 75.49 498.32 73.53C495.97 71.56 492.72 70.58 488.57 70.58H481.61V57.72H490.78C494.15 57.72 496.65 57.09 498.26 55.82C499.88 54.56 500.68 52.8 500.68 50.55C500.68 49.01 500.29 47.67 499.52 46.55C498.75 45.43 497.55 44.09 495.94 42.55C493.55 40.16 491.72 37.88 490.46 35.7C489.2 33.52 488.6 30.61 488.67 26.95H504.27C504.41 28.85 504.92 30.46 505.8 31.8C506.68 33.13 508.07 34.82 509.96 36.86C512.07 39.04 513.68 41.07 514.81 42.97C515.93 44.87 516.5 47.22 516.5 50.03C516.5 53.26 515.51 56.23 513.55 58.93C511.58 61.64 508.81 63.55 505.23 64.67C508.95 65.79 511.92 68.03 514.13 71.36C516.34 74.7 517.45 78.68 517.45 83.32C517.45 87.61 516.2 91.56 513.71 95.17C511.22 98.79 507.6 101.67 502.86 103.81C498.12 105.95 492.51 107.02 486.05 107.02C479.16 107.02 472.98 105.62 467.5 102.81H467.48Z" fill="#CAF0FF"/>
<path d="M192.69 126.52C191.97 126.24 191.4 125.84 190.99 125.33C190.58 124.82 190.37 124.22 190.37 123.54C190.37 122.9 190.55 122.33 190.92 121.83C191.29 121.33 191.79 120.94 192.43 120.65C193.07 120.36 193.8 120.18 194.62 120.13V119C194.62 118.78 194.56 118.6 194.44 118.46C194.32 118.33 194.12 118.17 193.85 117.99C193.51 117.76 193.25 117.53 193.08 117.3C192.91 117.08 192.84 116.76 192.88 116.35H194.36C194.35 116.62 194.41 116.84 194.54 116.99C194.67 117.15 194.88 117.33 195.16 117.52C195.47 117.73 195.7 117.92 195.86 118.11C196.02 118.3 196.1 118.56 196.1 118.89V120.16C197.22 120.31 198.14 120.68 198.84 121.29C199.54 121.89 199.89 122.64 199.89 123.54C199.89 124.22 199.68 124.82 199.27 125.33C198.85 125.84 198.28 126.24 197.56 126.52C196.84 126.8 196.02 126.94 195.13 126.94C194.24 126.94 193.41 126.8 192.69 126.52ZM192.79 125.3C193.39 125.73 194.17 125.95 195.13 125.95C195.74 125.95 196.29 125.85 196.78 125.66C197.27 125.46 197.65 125.18 197.93 124.82C198.21 124.46 198.35 124.03 198.35 123.55C198.35 122.81 198.05 122.23 197.43 121.79C196.82 121.36 196.05 121.14 195.12 121.14C194.19 121.14 193.39 121.36 192.78 121.79C192.17 122.22 191.87 122.81 191.87 123.55C191.87 124.29 192.17 124.87 192.78 125.31L192.79 125.3Z" fill="#CAF0FF"/>
<path d="M225.49 126.53C224.8 126.26 224.27 125.89 223.9 125.41C223.53 124.93 223.34 124.39 223.34 123.77C223.34 123.38 223.43 122.99 223.6 122.61L225.03 122.65C224.91 123 224.85 123.32 224.85 123.63C224.85 124.33 225.13 124.89 225.69 125.3C226.25 125.72 226.98 125.92 227.89 125.92C228.8 125.92 229.5 125.71 230.05 125.28C230.6 124.86 230.87 124.26 230.87 123.51V118.69C230.87 118.2 230.7 117.84 230.37 117.58C230.03 117.33 229.6 117.2 229.06 117.2C228.52 117.2 228.05 117.33 227.72 117.58C227.39 117.84 227.22 118.22 227.22 118.72V120.69H225.72V118.79C225.72 118.29 225.55 117.91 225.22 117.67C224.88 117.43 224.43 117.31 223.84 117.31H223.04V116.26H223.99C225.22 116.26 226.06 116.64 226.5 117.41C226.74 116.99 227.11 116.68 227.6 116.49C228.09 116.3 228.63 116.2 229.23 116.2C230.17 116.2 230.93 116.42 231.5 116.87C232.07 117.32 232.36 117.9 232.36 118.61V123.52C232.36 124.21 232.18 124.81 231.81 125.33C231.44 125.84 230.92 126.24 230.24 126.51C229.56 126.79 228.77 126.92 227.87 126.92C226.97 126.92 226.19 126.79 225.5 126.51L225.49 126.53Z" fill="#CAF0FF"/>
<path d="M264.55 125.36C263.9 125.05 262.98 124.89 261.79 124.89H257.69V123.98H259.32C258.38 123.66 257.63 123.14 257.08 122.4C256.52 121.66 256.25 120.82 256.25 119.87C256.25 119.07 256.42 118.39 256.76 117.84C257.1 117.29 257.56 116.88 258.13 116.61C258.7 116.34 259.34 116.21 260.03 116.21C260.72 116.21 261.39 116.33 261.94 116.56C262.5 116.79 262.9 117.19 263.16 117.75C263.65 116.72 264.7 116.21 266.31 116.21C267.01 116.21 267.64 116.34 268.21 116.61C268.78 116.88 269.23 117.28 269.56 117.82C269.9 118.36 270.06 119.03 270.06 119.84C270.06 120.33 270.01 120.78 269.91 121.21C269.8 121.64 269.65 122.11 269.44 122.61L267.96 122.55C268.17 122.09 268.32 121.65 268.42 121.23C268.52 120.81 268.57 120.35 268.57 119.87C268.57 118.99 268.35 118.33 267.91 117.88C267.47 117.43 266.9 117.21 266.19 117.21C265.48 117.21 264.96 117.39 264.54 117.74C264.13 118.09 263.92 118.65 263.92 119.41V121.48H262.44V119.41C262.44 118.65 262.23 118.1 261.82 117.74C261.4 117.38 260.86 117.21 260.19 117.21C259.47 117.21 258.89 117.43 258.45 117.88C258.01 118.33 257.79 119 257.79 119.91C257.79 121.09 258.18 122.02 258.96 122.71C259.74 123.4 260.88 123.79 262.39 123.89L262.88 123.93C264.16 124.01 265.17 124.28 265.92 124.76C266.66 125.24 267.1 125.92 267.22 126.81H265.72C265.6 126.16 265.21 125.67 264.56 125.36H264.55Z" fill="#CAF0FF"/>
<path d="M298.62 117.53C298.77 117.89 298.96 118.2 299.19 118.48C299.42 118.76 299.73 119.11 300.13 119.52C300.56 119.96 300.9 120.34 301.17 120.66C301.43 120.98 301.66 121.36 301.84 121.79C302.02 122.22 302.12 122.71 302.12 123.25C302.12 124.02 301.92 124.68 301.53 125.23C301.14 125.79 300.6 126.21 299.91 126.5C299.22 126.79 298.44 126.93 297.57 126.93C296.7 126.93 295.96 126.79 295.28 126.5C294.6 126.21 294.06 125.79 293.67 125.24C293.28 124.69 293.08 124.04 293.08 123.28C293.08 122.69 293.18 122.14 293.37 121.63L294.82 121.67C294.66 122.16 294.58 122.66 294.58 123.2C294.58 124.07 294.86 124.74 295.41 125.21C295.96 125.68 296.68 125.92 297.56 125.92C298.44 125.92 299.21 125.7 299.75 125.25C300.29 124.8 300.57 124.14 300.58 123.25C300.58 122.63 300.43 122.09 300.13 121.63C299.83 121.17 299.39 120.64 298.8 120.04C298.37 119.59 298.03 119.21 297.77 118.89C297.51 118.57 297.3 118.2 297.14 117.77C296.98 117.34 296.9 116.86 296.91 116.34H298.37C298.37 116.77 298.45 117.16 298.6 117.52L298.62 117.53Z" fill="#CAF0FF"/>
<path d="M336.54 125.36C335.71 125.05 334.52 124.89 332.97 124.89H327.05V123.97H328.74C327.64 123.65 326.76 123.12 326.1 122.37C325.44 121.62 325.11 120.72 325.11 119.66C325.11 118.9 325.29 118.26 325.65 117.74C326.01 117.22 326.49 116.83 327.08 116.58C327.67 116.33 328.31 116.2 328.99 116.2C329.6 116.2 330.17 116.31 330.69 116.54C331.22 116.77 331.61 117.17 331.88 117.75C332.12 117.19 332.52 116.79 333.06 116.55C333.6 116.31 334.19 116.19 334.81 116.19C335.43 116.19 336 116.31 336.56 116.55C337.11 116.79 337.52 117.19 337.76 117.74C338.02 117.18 338.4 116.78 338.92 116.54C339.44 116.3 340.03 116.18 340.69 116.18C341.35 116.18 342 116.31 342.58 116.57C343.15 116.83 343.61 117.24 343.95 117.79C344.29 118.34 344.46 119.03 344.46 119.85C344.46 120.67 344.26 121.6 343.86 122.58L342.38 122.52C342.77 121.65 342.97 120.76 342.97 119.85C342.97 118.94 342.75 118.29 342.32 117.85C341.89 117.42 341.33 117.2 340.66 117.2C340.04 117.2 339.52 117.37 339.1 117.73C338.68 118.08 338.48 118.62 338.48 119.35V121.49H337V119.19C337 118.51 336.79 118.01 336.38 117.69C335.96 117.37 335.44 117.21 334.82 117.21C334.2 117.21 333.66 117.37 333.26 117.69C332.85 118.01 332.64 118.51 332.64 119.2V121.5H331.16V119.36C331.16 118.63 330.95 118.09 330.54 117.74C330.12 117.39 329.62 117.21 329.02 117.21C328.36 117.21 327.8 117.42 327.34 117.83C326.88 118.25 326.65 118.86 326.65 119.69C326.65 120.98 327.15 121.98 328.16 122.69C329.17 123.4 330.52 123.78 332.22 123.83L333.98 123.87C335.65 123.92 336.96 124.19 337.91 124.7C338.86 125.21 339.38 125.91 339.49 126.79H337.97C337.85 126.14 337.37 125.65 336.54 125.34V125.36Z" fill="#CAF0FF"/>
<path d="M368.56 119.11C369.05 118.37 369.73 117.78 370.59 117.36C371.45 116.94 372.45 116.68 373.56 116.6V115.94H375.06V116.6C376.16 116.68 377.14 116.92 378 117.35C378.86 117.78 379.54 118.36 380.02 119.1C380.5 119.84 380.75 120.72 380.75 121.72C380.75 122.79 380.47 123.72 379.91 124.51C379.35 125.3 378.58 125.9 377.61 126.32C376.64 126.74 375.54 126.94 374.32 126.94C373.1 126.94 371.97 126.73 370.99 126.32C370 125.9 369.23 125.3 368.66 124.51C368.1 123.72 367.82 122.79 367.82 121.72C367.82 120.72 368.06 119.85 368.55 119.11H368.56ZM373.69 117.52C372.38 117.62 371.33 118.04 370.54 118.76C369.75 119.48 369.35 120.47 369.35 121.72C369.35 122.6 369.57 123.35 370 123.99C370.43 124.62 371.03 125.11 371.78 125.45C372.53 125.79 373.38 125.95 374.33 125.95C375.28 125.95 376.12 125.78 376.87 125.45C377.62 125.11 378.21 124.63 378.64 123.99C379.07 123.35 379.28 122.6 379.28 121.73C379.28 120.48 378.88 119.49 378.09 118.77C377.3 118.05 376.25 117.63 374.96 117.53C375.03 117.84 375.07 118.27 375.07 118.83V122.67H373.57V118.85C373.57 118.33 373.61 117.89 373.7 117.53L373.69 117.52Z" fill="#CAF0FF"/>
<path d="M406.18 126.53C405.5 126.26 404.97 125.89 404.6 125.41C404.23 124.93 404.04 124.39 404.04 123.77C404.04 123.39 404.12 123 404.28 122.61L405.71 122.65C405.59 123.06 405.53 123.39 405.53 123.63C405.53 124.33 405.81 124.89 406.37 125.3C406.93 125.72 407.66 125.92 408.57 125.92C409.48 125.92 410.2 125.71 410.74 125.29C411.28 124.87 411.55 124.28 411.55 123.53V119.47C411.54 118.73 411.26 118.17 410.73 117.79C410.2 117.41 409.52 117.22 408.7 117.22C407.83 117.22 407.15 117.4 406.66 117.76C406.16 118.12 405.92 118.63 405.92 119.28C405.92 119.51 405.94 119.74 405.99 119.95L404.51 119.98C404.44 119.71 404.4 119.43 404.4 119.15C404.4 118.57 404.59 118.06 404.97 117.62C405.35 117.18 405.86 116.83 406.52 116.58C407.17 116.33 407.9 116.21 408.71 116.21C409.52 116.21 410.25 116.34 410.91 116.59C411.57 116.85 412.09 117.22 412.48 117.7C412.87 118.18 413.06 118.75 413.06 119.39V123.55C413.06 124.23 412.88 124.83 412.51 125.34C412.14 125.85 411.62 126.24 410.95 126.52C410.27 126.8 409.48 126.93 408.58 126.93C407.68 126.93 406.9 126.8 406.22 126.52L406.18 126.53Z" fill="#CAF0FF"/>
<path d="M448.88 120.5C449.45 120.75 449.9 121.14 450.24 121.65C450.58 122.17 450.74 122.81 450.74 123.56C450.74 124.16 450.66 124.71 450.49 125.21C450.33 125.71 450.08 126.25 449.77 126.81H448.29C448.62 126.24 448.86 125.7 449.01 125.19C449.16 124.68 449.24 124.14 449.24 123.58C449.24 122.78 449.02 122.17 448.58 121.75C448.14 121.33 447.57 121.13 446.86 121.13C446.15 121.13 445.61 121.3 445.2 121.63C444.79 121.97 444.59 122.49 444.59 123.21V125.17H443.11V123.21C443.11 122.48 442.9 121.95 442.49 121.62C442.07 121.29 441.53 121.12 440.86 121.12C440.13 121.12 439.54 121.33 439.09 121.74C438.64 122.15 438.42 122.76 438.42 123.57C438.42 124.12 438.5 124.65 438.65 125.14C438.8 125.64 439.05 126.19 439.39 126.8H437.91C437.57 126.17 437.32 125.56 437.17 124.98C437.02 124.4 436.94 123.67 436.94 122.8C436.94 121.57 437.22 120.6 437.78 119.89C438.34 119.19 439 118.68 439.77 118.38C440.53 118.08 441.49 117.8 442.65 117.55C443.52 117.36 444.16 117.19 444.57 117.03C444.98 116.87 445.26 116.64 445.39 116.33H446.89C446.82 116.76 446.6 117.11 446.24 117.38C445.88 117.65 445.45 117.86 444.96 118.01C444.47 118.16 443.8 118.33 442.96 118.51C442.07 118.71 441.34 118.89 440.76 119.07C440.19 119.25 439.67 119.5 439.2 119.83C438.73 120.16 438.42 120.59 438.25 121.12C438.54 120.75 438.92 120.48 439.39 120.33C439.85 120.18 440.35 120.1 440.87 120.1C441.56 120.1 442.16 120.22 442.68 120.45C443.2 120.68 443.59 121.05 443.83 121.56C444.1 121.04 444.51 120.66 445.07 120.44C445.62 120.22 446.26 120.1 446.98 120.1C447.7 120.1 448.31 120.23 448.87 120.48L448.88 120.5Z" fill="#CAF0FF"/>
<path d="M474.62 124.32C474.43 123.51 474.33 122.59 474.33 121.56V119.99C474.33 119.18 474.53 118.48 474.93 117.91C475.33 117.34 475.86 116.91 476.53 116.62C477.2 116.33 477.95 116.19 478.78 116.19C479.61 116.19 480.34 116.33 481.01 116.62C481.68 116.91 482.22 117.34 482.61 117.91C483 118.48 483.21 119.17 483.21 119.98V121.55C483.21 122.57 483.12 123.49 482.93 124.31C482.75 125.13 482.47 125.96 482.09 126.8H480.62C481 125.94 481.28 125.09 481.45 124.26C481.63 123.43 481.72 122.52 481.72 121.54V120.08C481.72 119.14 481.44 118.42 480.9 117.94C480.36 117.46 479.64 117.21 478.78 117.21C477.92 117.21 477.17 117.45 476.63 117.94C476.09 118.43 475.82 119.14 475.82 120.08V121.54C475.82 122.49 475.91 123.39 476.1 124.25C476.28 125.1 476.56 125.96 476.94 126.8H475.48C475.1 125.95 474.82 125.12 474.63 124.31L474.62 124.32Z" fill="#CAF0FF"/>
<path d="M512.38 117.53C512.53 117.89 512.72 118.2 512.95 118.48C513.17 118.76 513.49 119.11 513.89 119.52C514.32 119.96 514.66 120.34 514.93 120.66C515.19 120.98 515.41 121.36 515.6 121.79C515.78 122.22 515.88 122.71 515.88 123.25C515.88 124.02 515.68 124.68 515.29 125.23C514.9 125.79 514.36 126.21 513.67 126.5C512.98 126.79 512.2 126.93 511.33 126.93C510.46 126.93 509.72 126.79 509.04 126.5C508.35 126.21 507.82 125.79 507.43 125.24C507.04 124.69 506.84 124.04 506.84 123.28C506.84 122.69 506.94 122.14 507.13 121.63L508.58 121.67C508.42 122.16 508.34 122.66 508.34 123.2C508.34 124.07 508.62 124.74 509.17 125.21C509.72 125.68 510.44 125.92 511.32 125.92C512.2 125.92 512.96 125.7 513.51 125.25C514.05 124.81 514.33 124.14 514.34 123.25C514.34 122.63 514.19 122.09 513.89 121.63C513.59 121.17 513.15 120.64 512.56 120.04C512.13 119.59 511.79 119.21 511.53 118.89C511.27 118.57 511.06 118.2 510.9 117.77C510.73 117.34 510.66 116.86 510.67 116.34H512.13C512.13 116.77 512.21 117.16 512.36 117.52L512.38 117.53Z" fill="#CAF0FF"/>
</g>
<defs>
<linearGradient id="paint0_linear_2_98" x1="0.5" y1="75.47" x2="109.99" y2="75.47" gradientUnits="userSpaceOnUse">
<stop stop-color="#488DB4"/>
<stop offset="0.51" stop-color="#85C4E5"/>
<stop offset="1" stop-color="#CCDDE4"/>
</linearGradient>
<clipPath id="clip0_2_98">
<rect width="516.93" height="149.93" fill="white" transform="translate(0.5 0.5)"/>
</clipPath>
</defs>
</svg>
