<svg width="110" height="151" viewBox="0 0 110 151" fill="none" xmlns="http://www.w3.org/2000/svg">
<path d="M44.37 22.43C44.37 34.54 34.55 44.36 22.44 44.36C10.33 44.36 0.5 34.55 0.5 22.43C0.5 10.31 10.32 0.5 22.43 0.5C34.54 0.5 44.36 10.32 44.36 22.43H44.37ZM23.66 104.72C11.04 104.72 0.8 114.95 0.8 127.58C0.8 140.21 11.03 150.44 23.66 150.44C36.29 150.44 46.52 140.21 46.52 127.58C46.52 114.95 36.29 104.72 23.66 104.72ZM109.98 52.61L0.5 53.04V96.09L67.69 95.66C91.05 95.66 109.99 76.73 109.99 53.36C109.99 53.11 109.99 52.86 109.99 52.61H109.98ZM109.99 43.23C109.99 19.86 91.05 0.93 67.69 0.93L50.37 0.5V43.55L109.98 43.98C109.98 43.73 109.98 43.48 109.98 43.23H109.99Z" fill="url(#paint0_linear_2_39)"/>
<defs>
<linearGradient id="paint0_linear_2_39" x1="0.5" y1="75.47" x2="109.99" y2="75.47" gradientUnits="userSpaceOnUse">
<stop stop-color="#488DB4"/>
<stop offset="0.51" stop-color="#85C4E5"/>
<stop offset="1" stop-color="#CCDDE4"/>
</linearGradient>
</defs>
</svg>
