<svg width="20" height="16" viewBox="0 0 20 16" fill="none" xmlns="http://www.w3.org/2000/svg">
<path d="M13.0681 0.245429V0.242188H13.9121L14.2205 0.303779C14.4261 0.343766 14.6127 0.396167 14.7804 0.461001C14.9481 0.525835 15.1105 0.601479 15.2673 0.687919C15.4242 0.774358 15.5665 0.862435 15.6942 0.952116C15.8208 1.04073 15.9344 1.13474 16.0351 1.23414C16.1346 1.33463 16.2899 1.36057 16.5009 1.31194C16.7119 1.26332 16.9391 1.19578 17.1826 1.10934C17.426 1.0229 17.6668 0.925647 17.9049 0.817586C18.1429 0.709525 18.2879 0.640914 18.3399 0.611739C18.3907 0.581494 18.4178 0.565286 18.421 0.563114L18.4242 0.558251L18.4405 0.550147L18.4567 0.542043L18.4729 0.533939L18.4892 0.525835L18.4924 0.520972L18.4973 0.51773L18.5022 0.514489L18.5054 0.509626L18.5216 0.504764L18.5379 0.501522L18.5346 0.525835L18.5297 0.550147L18.5216 0.57446L18.5135 0.598772L18.5054 0.614981L18.4973 0.631189L18.4892 0.655502C18.4838 0.67171 18.4784 0.693316 18.4729 0.720336C18.4675 0.747355 18.4161 0.8554 18.3187 1.0445C18.2214 1.23361 18.0996 1.4254 17.9535 1.6199C17.8075 1.8144 17.6766 1.96135 17.5608 2.06077C17.4439 2.16126 17.3665 2.23149 17.3287 2.27148C17.2908 2.31254 17.2448 2.35035 17.1907 2.38494L17.1095 2.43843L17.0933 2.44653L17.0771 2.45464L17.0739 2.4595L17.069 2.46274L17.0641 2.46598L17.0609 2.47084L17.0446 2.47895L17.0284 2.48705L17.0252 2.49191L17.0203 2.49516L17.0154 2.4984L17.0122 2.50326L17.0089 2.50812L17.004 2.51136L16.9992 2.51461L16.9959 2.51947H17.0771L17.5315 2.42222C17.8345 2.35738 18.124 2.27905 18.3999 2.1872L18.8381 2.04132L18.8868 2.02511L18.9112 2.01701L18.9274 2.0089L18.9436 2.0008L18.9599 1.9927L18.9761 1.98459L19.0086 1.97973L19.041 1.97649V2.0089L19.0329 2.01215L19.0248 2.01701L19.0216 2.02187L19.0167 2.02511L19.0118 2.02835L19.0086 2.03322L19.0053 2.03808L19.0004 2.04132L18.9956 2.04456L18.9923 2.04943L18.9891 2.05429L18.9842 2.05753L18.9761 2.07374L18.968 2.08995L18.9631 2.09319C18.9609 2.09643 18.8922 2.18827 18.757 2.36873C18.6217 2.55026 18.5487 2.6421 18.5379 2.64427C18.5271 2.64752 18.5119 2.66372 18.4924 2.6929C18.474 2.72314 18.3593 2.84364 18.1483 3.05435C17.9373 3.26506 17.7307 3.45252 17.5283 3.61678C17.3249 3.7821 17.2221 3.98524 17.2199 4.22621C17.2167 4.4661 17.2042 4.73733 17.1826 5.03988C17.1609 5.34244 17.1204 5.6693 17.0609 6.02048C17.0014 6.37167 16.9094 6.76878 16.7849 7.2118C16.6605 7.65483 16.509 8.08706 16.3305 8.50848C16.1519 8.92989 15.9653 9.30809 15.7705 9.64306C15.5757 9.97804 15.3972 10.2617 15.2349 10.494C15.0726 10.7263 14.9076 10.9451 14.7398 11.1504C14.5721 11.3558 14.3601 11.587 14.1036 11.8442C13.8461 12.1003 13.7054 12.2407 13.6816 12.2656C13.6567 12.2894 13.5507 12.378 13.3635 12.5314C13.1774 12.6859 12.9772 12.8404 12.7629 12.995C12.5498 13.1484 12.3539 13.2765 12.1754 13.3791C11.9968 13.4818 11.7815 13.599 11.5294 13.7308C11.2784 13.8637 11.0068 13.9869 10.7146 14.1004C10.4224 14.2138 10.1141 14.3192 9.78944 14.4164C9.46482 14.5137 9.15103 14.5893 8.84805 14.6434C8.54508 14.6974 8.20153 14.7433 7.81739 14.7811L7.2412 14.8379V14.846H6.18619V14.8379L6.04823 14.8298C5.95627 14.8244 5.88052 14.8189 5.821 14.8135C5.7615 14.8081 5.53696 14.7784 5.14742 14.7244C4.75788 14.6704 4.4522 14.6163 4.23038 14.5623C4.00856 14.5083 3.67853 14.4056 3.24029 14.2544C2.80206 14.1031 2.42713 13.9502 2.1155 13.7957C1.80495 13.6422 1.61018 13.545 1.53119 13.5039C1.45328 13.4639 1.36563 13.4142 1.26825 13.3548L1.12217 13.2656L1.11894 13.2608L1.11405 13.2575L1.10919 13.2543L1.10594 13.2494L1.08971 13.2413L1.07348 13.2332L1.07025 13.2284L1.06536 13.2251L1.06049 13.2219L1.05725 13.217L1.05402 13.2122L1.04913 13.2089H1.04102V13.1765L1.05725 13.1797L1.07348 13.1846L1.14652 13.1927C1.19521 13.1981 1.32777 13.2062 1.54417 13.217C1.76059 13.2278 1.99052 13.2278 2.23398 13.217C2.47744 13.2062 2.72633 13.1819 2.9806 13.1441C3.23489 13.1063 3.53516 13.0414 3.88141 12.9496C4.22768 12.8577 4.54581 12.7486 4.8358 12.6222C5.12471 12.4947 5.33029 12.3996 5.45257 12.3369C5.57375 12.2753 5.75878 12.1608 6.00765 11.9933L6.38096 11.7421L6.38421 11.7372L6.38908 11.7339L6.39396 11.7307L6.39719 11.7258L6.40044 11.721L6.40531 11.7177L6.41019 11.7145L6.41342 11.7096L6.42965 11.7048L6.44588 11.7015L6.44913 11.6853L6.454 11.6691L6.45889 11.6659L6.46212 11.661L6.33227 11.6529C6.24571 11.6475 6.16185 11.6421 6.08069 11.6367C5.99954 11.6313 5.8724 11.607 5.69927 11.5638C5.52615 11.5205 5.33949 11.4557 5.1393 11.3693C4.93913 11.2828 4.74436 11.1802 4.55499 11.0613C4.36564 10.9424 4.22875 10.8436 4.14435 10.7647C4.06104 10.6869 3.95283 10.5767 3.81974 10.434C3.68773 10.2903 3.57303 10.1428 3.47564 9.99154C3.37826 9.84027 3.2852 9.66574 3.19649 9.46801L3.06175 9.17302L3.05364 9.14871L3.04552 9.1244L3.04065 9.10819L3.03741 9.09198L3.06175 9.09522L3.0861 9.10008L3.26464 9.1244C3.38368 9.1406 3.57033 9.146 3.8246 9.1406C4.07889 9.13521 4.25472 9.1244 4.35211 9.10819C4.44949 9.09198 4.50901 9.08117 4.53065 9.07577L4.56311 9.06767L4.60368 9.05956L4.64426 9.05146L4.64751 9.0466L4.65238 9.04335L4.65726 9.04011L4.66049 9.03525L4.62803 9.02714L4.59557 9.01904L4.56311 9.01094L4.53065 9.00283L4.49818 8.99473C4.47655 8.98933 4.43868 8.97852 4.38457 8.96231C4.33047 8.9461 4.18439 8.88667 3.94634 8.78402C3.70829 8.68137 3.51893 8.58141 3.37826 8.48416C3.23724 8.38663 3.10277 8.27997 2.97573 8.16486C2.84913 8.04816 2.7101 7.89795 2.5586 7.71426C2.40712 7.53057 2.27187 7.31716 2.15283 7.07403C2.03381 6.83091 1.94454 6.59859 1.88502 6.37707C1.82574 6.15685 1.78663 5.93171 1.76817 5.70442L1.73894 5.36404L1.75517 5.36729L1.7714 5.37215L1.78763 5.38025L1.80387 5.38836L1.8201 5.39646L1.83633 5.40457L2.0879 5.51802C2.25563 5.59367 2.46392 5.6585 2.71279 5.71253C2.96168 5.76655 3.11045 5.79627 3.15914 5.80167L3.23218 5.80978H3.37826L3.37503 5.80491L3.37014 5.80167L3.36527 5.79843L3.36203 5.79357L3.3588 5.7887L3.35391 5.78546L3.34904 5.78222L3.34579 5.77736L3.32956 5.76925L3.31333 5.76115L3.3101 5.75629L3.30522 5.75305L3.30035 5.7498L3.2971 5.74494L3.28087 5.73684L3.26464 5.72873L3.26141 5.72387C3.25816 5.7217 3.21163 5.68713 3.12181 5.62014C3.03308 5.55206 2.94002 5.464 2.84264 5.35594C2.74525 5.24788 2.64787 5.13442 2.55048 5.01556C2.45292 4.89644 2.36602 4.76898 2.29079 4.63467C2.21506 4.4996 2.13497 4.32778 2.05057 4.11924C1.96726 3.91177 1.90396 3.70268 1.86067 3.49197C1.8174 3.28126 1.79306 3.07326 1.78763 2.86795C1.78223 2.66264 1.78763 2.48705 1.80387 2.34118C1.8201 2.1953 1.85256 2.03051 1.90125 1.84682C1.94994 1.66313 2.02029 1.46863 2.11225 1.26332L2.25021 0.955357L2.25833 0.931045L2.26644 0.906732L2.27133 0.903491L2.27456 0.898628L2.27781 0.893766L2.28267 0.890524L2.28756 0.893766L2.29079 0.898628L2.29404 0.903491L2.29891 0.906732L2.30379 0.909974L2.30702 0.914836L2.31027 0.919699L2.31514 0.922941L2.32325 0.939149L2.33137 0.955357L2.33625 0.958599L2.33948 0.963462L2.5586 1.20659C2.70468 1.36867 2.87781 1.54967 3.07799 1.74957C3.27818 1.94947 3.38908 2.0532 3.41072 2.06077C3.43237 2.06941 3.45941 2.09426 3.49187 2.13533C3.52433 2.17532 3.63254 2.27095 3.81649 2.42222C4.00045 2.57349 4.2412 2.74909 4.53876 2.94899C4.83634 3.14889 5.16636 3.3461 5.52884 3.5406C5.89134 3.7351 6.28088 3.91069 6.69746 4.06737C7.11406 4.22406 7.40621 4.32671 7.57393 4.37533C7.74166 4.42396 8.02839 4.48608 8.43416 4.56173C8.83993 4.63737 9.14563 4.686 9.3512 4.7076C9.5568 4.72921 9.69747 4.74164 9.77321 4.74488L9.88682 4.74813L9.88359 4.72381L9.87871 4.6995L9.84625 4.49689C9.82461 4.36183 9.81378 4.17273 9.81378 3.9296C9.81378 3.68647 9.83273 3.46226 9.87059 3.25695C9.90847 3.05164 9.96528 2.84364 10.041 2.63293C10.1168 2.42222 10.1909 2.2531 10.2634 2.1256C10.337 1.99918 10.4333 1.85492 10.5523 1.69284C10.6713 1.53076 10.8255 1.36327 11.0149 1.19038C11.2042 1.01748 11.4206 0.863504 11.6641 0.72844C11.9076 0.593375 12.1321 0.490711 12.3377 0.42048C12.5433 0.350249 12.7164 0.304314 12.8571 0.282709C12.9977 0.261103 13.0681 0.248671 13.0681 0.245429Z" fill="#0D92F2"/>
</svg>
