<svg width="22" height="16" viewBox="0 0 22 16" fill="none" xmlns="http://www.w3.org/2000/svg">
<path d="M11.4793 14.5251L7.41709 14.4492C6.10184 14.4227 4.78332 14.4755 3.49386 14.2014C1.5323 13.7919 1.39333 11.784 1.24792 10.0998C1.04756 7.73194 1.12513 5.32113 1.50323 2.97305C1.71669 1.65554 2.55672 0.869364 3.8558 0.783814C8.24115 0.473339 12.6557 0.510133 17.0313 0.654981C17.4934 0.66826 17.9587 0.740835 18.4144 0.823446C20.6637 1.22636 20.7186 3.50176 20.8644 5.41722C21.0098 7.35244 20.9484 9.2976 20.6704 11.2196C20.4475 12.811 20.0209 14.1456 18.2205 14.2744C15.9647 14.4429 13.7607 14.5785 11.4986 14.5353C11.4987 14.5251 11.4857 14.5251 11.4793 14.5251ZM9.0911 10.4961C10.791 9.4987 12.4585 8.51791 14.1487 7.52719C12.4456 6.52978 10.7813 5.54899 9.0911 4.55827V10.4961Z" fill="#0D92F2"/>
</svg>
